<?xml version="1.0" standalone="no"?>
<!DOCTYPE svg PUBLIC "-//W3C//DTD SVG 20010904//EN"
 "http://www.w3.org/TR/2001/REC-SVG-20010904/DTD/svg10.dtd">
<svg version="1.0" xmlns="http://www.w3.org/2000/svg"
 width="700.000000pt" height="700.000000pt" viewBox="0 0 700.000000 700.000000"
 preserveAspectRatio="xMidYMid meet">
<metadata>
Created by potrace 1.11, written by Peter Selinger 2001-2013
</metadata>
<g transform="translate(0.000000,700.000000) scale(0.100000,-0.100000)"
fill="#000000" stroke="none">
<path d="M3329 6996 c-2 -2 -38 -7 -79 -11 -41 -4 -82 -8 -90 -9 -8 -2 -37 -6
-65 -11 -87 -13 -97 -16 -249 -57 -215 -59 -467 -172 -651 -293 -49 -33 -94
-63 -100 -67 -5 -5 -46 -36 -90 -70 -100 -77 -301 -277 -384 -383 -261 -329
-443 -742 -496 -1122 -3 -21 -7 -47 -10 -58 -9 -43 -19 -206 -19 -310 0 -193
22 -404 56 -530 5 -22 12 -51 14 -65 9 -50 67 -228 107 -325 117 -288 312
-582 523 -789 140 -137 255 -229 396 -320 100 -64 108 -72 122 -115 8 -25 81
-255 162 -511 l147 -465 2 -355 c2 -362 4 -388 45 -527 60 -201 224 -396 422
-501 136 -72 276 -103 443 -97 102 4 108 5 185 24 272 70 508 284 598 543 53
152 55 169 57 573 l2 340 31 95 c17 52 69 217 116 365 46 149 105 336 131 417
l46 147 62 37 c61 37 256 179 308 226 276 245 472 507 621 833 50 108 132 341
141 400 3 17 9 48 15 70 6 22 16 72 22 110 6 39 13 80 15 92 26 153 24 501 -4
663 -6 30 -12 71 -15 90 -32 222 -165 577 -294 785 -17 28 -39 64 -48 80 -65
117 -336 427 -469 535 -92 76 -130 103 -225 167 -227 152 -456 254 -730 326
-52 14 -111 28 -130 31 -56 9 -161 25 -205 32 -43 6 -431 15 -436 10z"/>
</g>
</svg>
